HIERARCHY
ROOT newVegas:Hips
{
	OFFSET 0.000000 96.479958 0.000000
	CHANNELS 6 Xposition Yposition Zposition Xrotation Yrotation Zrotation
	JOINT newVegas:Pelvis
	{
		OFFSET 0.000000 0.000000 0.000000
		CHANNELS 3 Xrotation Yrotation Zrotation
		JOINT newVegas:LeftUpLeg
		{
			OFFSET 18.735201 -5.666702 -4.541200
			CHANNELS 3 Xrotation Yrotation Zrotation
			JOINT newVegas:LeftLeg
			{
				OFFSET -0.021200 -31.938179 0.493100
				CHANNELS 3 Xrotation Yrotation Zrotation
				JOINT newVegas:LeftFoot
				{
					OFFSET 0.021200 -31.938179 -4.336299
					CHANNELS 3 Xrotation Yrotation Zrotation
					JOINT newVegas:LeftToeBase
					{
						OFFSET 0.943001 -26.722000 15.023500
						CHANNELS 3 Xrotation Yrotation Zrotation
						End Site
						{
							OFFSET 0.000000 30.670183 0.000000
						}
					}
				}
				JOINT newVegas:Left_PantLeg
				{
					OFFSET 0.663870 -9.044666 -1.108900
					CHANNELS 3 Xrotation Yrotation Zrotation
					End Site
					{
						OFFSET 1.415995 20.635357 0.000000
					}
				}
			}
		}
		JOINT newVegas:RightUpLeg
		{
			OFFSET -18.735201 -5.666702 -4.541200
			CHANNELS 3 Xrotation Yrotation Zrotation
			JOINT newVegas:RightLeg
			{
				OFFSET 0.018946 -31.938133 0.493100
				CHANNELS 3 Xrotation Yrotation Zrotation
				JOINT newVegas:RightFoot
				{
					OFFSET -0.018946 -31.938126 -4.336299
					CHANNELS 3 Xrotation Yrotation Zrotation
					JOINT newVegas:RightToeBase
					{
						OFFSET -0.943001 -26.722004 15.023500
						CHANNELS 3 Xrotation Yrotation Zrotation
						End Site
						{
							OFFSET 0.000000 30.670187 0.000000
						}
					}
				}
				JOINT newVegas:Right_PantLeg
				{
					OFFSET -0.661674 -9.044716 -1.108900
					CHANNELS 3 Xrotation Yrotation Zrotation
					End Site
					{
						OFFSET -1.415958 20.635269 0.000000
					}
				}
			}
		}
	}
	JOINT newVegas:Spine
	{
		OFFSET 0.000000 10.199997 -0.299500
		CHANNELS 3 Xrotation Yrotation Zrotation
		JOINT newVegas:Spine1
		{
			OFFSET 0.000000 11.900002 -1.516600
			CHANNELS 3 Xrotation Yrotation Zrotation
			JOINT newVegas:Spine2
			{
				OFFSET 0.000000 13.600006 -2.842500
				CHANNELS 3 Xrotation Yrotation Zrotation
				JOINT newVegas:Neck
				{
					OFFSET 0.000000 9.624100 -2.890100
					CHANNELS 3 Xrotation Yrotation Zrotation
					JOINT newVegas:Head
					{
						OFFSET 0.000000 14.068802 -1.351900
						CHANNELS 3 Xrotation Yrotation Zrotation
						JOINT newVegas:Hair_Back
						{
							OFFSET 0.000000 3.231903 -17.524799
							CHANNELS 3 Xrotation Yrotation Zrotation
							End Site
							{
								OFFSET 0.000000 19.849884 0.000000
							}
						}
						JOINT newVegas:Hair_Front
						{
							OFFSET 0.000000 31.260406 4.573800
							CHANNELS 3 Xrotation Yrotation Zrotation
							JOINT newVegas:Hair_Front1
							{
								OFFSET 0.000000 2.284103 11.993300
								CHANNELS 3 Xrotation Yrotation Zrotation
								JOINT newVegas:Hair_Front2
								{
									OFFSET 0.000000 2.284103 11.993300
									CHANNELS 3 Xrotation Yrotation Zrotation
									End Site
									{
										OFFSET 0.000000 12.208862 0.000000
									}
								}
							}
						}
						JOINT newVegas:Jowel
						{
							OFFSET 0.000000 -7.458206 6.864100
							CHANNELS 3 Xrotation Yrotation Zrotation
							End Site
							{
								OFFSET 0.000000 19.849884 0.000000
							}
						}
					}
				}
				JOINT newVegas:LeftShoulder
				{
					OFFSET 15.263000 10.923401 -0.547700
					CHANNELS 3 Xrotation Yrotation Zrotation
					JOINT newVegas:LeftArm
					{
						OFFSET 25.438599 -2.830597 -13.032500
						CHANNELS 3 Xrotation Yrotation Zrotation
						JOINT newVegas:LeftForeArm
						{
							OFFSET 29.960503 0.000000 0.000000
							CHANNELS 3 Xrotation Yrotation Zrotation
							JOINT newVegas:LeftHand
							{
								OFFSET 27.849251 0.000000 0.000000
								CHANNELS 3 Xrotation Yrotation Zrotation
								JOINT newVegas:LeftHandThumb1
								{
									OFFSET 4.487587 -3.305161 6.305391
									CHANNELS 3 Xrotation Yrotation Zrotation
									JOINT newVegas:LeftHandThumb2
									{
										OFFSET 5.480453 -3.164139 3.164143
										CHANNELS 3 Xrotation Yrotation Zrotation
										JOINT newVegas:LeftHandThumb3
										{
											OFFSET 5.159721 -2.978973 2.978967
											CHANNELS 3 Xrotation Yrotation Zrotation
											End Site
											{
												OFFSET 2.494507 5.926697 1.738678
											}
										}
									}
								}
								JOINT newVegas:LeftHandIndex1
								{
									OFFSET 18.578728 -0.527832 5.208049
									CHANNELS 3 Xrotation Yrotation Zrotation
									JOINT newVegas:LeftHandIndex2
									{
										OFFSET 3.192009 0.000000 0.000000
										CHANNELS 3 Xrotation Yrotation Zrotation
										JOINT newVegas:LeftHandIndex3
										{
											OFFSET 3.835129 0.000000 0.000000
											CHANNELS 3 Xrotation Yrotation Zrotation
											End Site
											{
												OFFSET -0.034599 3.816971 0.371180
											}
										}
									}
								}
								JOINT newVegas:LeftHandMiddle1
								{
									OFFSET 18.476105 0.000000 0.000000
									CHANNELS 3 Xrotation Yrotation Zrotation
									JOINT newVegas:LeftHandMiddle2
									{
										OFFSET 3.324875 0.000000 0.000000
										CHANNELS 3 Xrotation Yrotation Zrotation
										JOINT newVegas:LeftHandMiddle3
										{
											OFFSET 4.596550 0.000000 0.000000
											CHANNELS 3 Xrotation Yrotation Zrotation
											End Site
											{
												OFFSET 0.057701 4.578827 0.399218
											}
										}
									}
								}
								JOINT newVegas:LeftHandRing1
								{
									OFFSET 17.732719 0.121887 -4.201567
									CHANNELS 3 Xrotation Yrotation Zrotation
									JOINT newVegas:LeftHandRing2
									{
										OFFSET 2.733170 0.000000 0.000000
										CHANNELS 3 Xrotation Yrotation Zrotation
										JOINT newVegas:LeftHandRing3
										{
											OFFSET 3.178268 0.000000 0.000000
											CHANNELS 3 Xrotation Yrotation Zrotation
											End Site
											{
												OFFSET 0.119102 3.170624 0.185394
											}
										}
									}
								}
								JOINT newVegas:LeftHandPinky1
								{
									OFFSET 15.989624 -0.606689 -7.535461
									CHANNELS 3 Xrotation Yrotation Zrotation
									JOINT newVegas:LeftHandPinky2
									{
										OFFSET 2.538986 0.000000 0.000000
										CHANNELS 3 Xrotation Yrotation Zrotation
										JOINT newVegas:LeftHandPinky3
										{
											OFFSET 2.593102 0.000000 0.000000
											CHANNELS 3 Xrotation Yrotation Zrotation
											End Site
											{
												OFFSET -0.150902 2.584198 0.152708
											}
										}
									}
								}
							}
							JOINT newVegas:Left_Sleeve
							{
								OFFSET 0.267448 -0.649796 0.577675
								CHANNELS 3 Xrotation Yrotation Zrotation
								End Site
								{
									OFFSET 0.000000 15.991241 0.000000
								}
							}
							JOINT newVegas:Left_CapeC
							{
								OFFSET 15.715958 -8.608795 -6.935905
								CHANNELS 3 Xrotation Yrotation Zrotation
								JOINT newVegas:Left_CapeC1
								{
									OFFSET 0.000000 -8.688499 0.000000
									CHANNELS 3 Xrotation Yrotation Zrotation
									End Site
									{
										OFFSET 0.000000 8.688499 0.000000
									}
								}
							}
						}
						JOINT newVegas:Left_CapeB
						{
							OFFSET 26.118385 -8.608795 -7.079235
							CHANNELS 3 Xrotation Yrotation Zrotation
							JOINT newVegas:Left_CapeB1
							{
								OFFSET 0.000000 -8.688499 0.000000
								CHANNELS 3 Xrotation Yrotation Zrotation
								End Site
								{
									OFFSET 0.000000 8.688499 0.000000
								}
							}
						}
						JOINT newVegas:Left_CapeA
						{
							OFFSET 5.115639 -8.608795 -10.395809
							CHANNELS 3 Xrotation Yrotation Zrotation
							JOINT newVegas:Left_CapeA1
							{
								OFFSET 0.000000 -8.688499 0.000000
								CHANNELS 3 Xrotation Yrotation Zrotation
								End Site
								{
									OFFSET 0.000000 8.688499 0.000000
								}
							}
						}
					}
				}
				JOINT newVegas:RightShoulder
				{
					OFFSET -15.263000 10.923401 -0.547700
					CHANNELS 3 Xrotation Yrotation Zrotation
					JOINT newVegas:RightArm
					{
						OFFSET -25.438599 -2.830597 -13.032500
						CHANNELS 3 Xrotation Yrotation Zrotation
						JOINT newVegas:RightForeArm
						{
							OFFSET -29.960503 0.000000 0.000000
							CHANNELS 3 Xrotation Yrotation Zrotation
							JOINT newVegas:RightHand
							{
								OFFSET -27.849251 0.000000 0.000000
								CHANNELS 3 Xrotation Yrotation Zrotation
								JOINT newVegas:RightHandThumb1
								{
									OFFSET -4.487587 -3.305161 6.305391
									CHANNELS 3 Xrotation Yrotation Zrotation
									JOINT newVegas:RightHandThumb2
									{
										OFFSET -5.480453 -3.164139 3.164143
										CHANNELS 3 Xrotation Yrotation Zrotation
										JOINT newVegas:RightHandThumb3
										{
											OFFSET -5.159721 -2.978973 2.978967
											CHANNELS 3 Xrotation Yrotation Zrotation
											End Site
											{
												OFFSET -2.494507 5.926697 1.738678
											}
										}
									}
								}
								JOINT newVegas:RightHandIndex1
								{
									OFFSET -18.578728 -0.527832 5.208049
									CHANNELS 3 Xrotation Yrotation Zrotation
									JOINT newVegas:RightHandIndex2
									{
										OFFSET -3.192009 0.000000 0.000000
										CHANNELS 3 Xrotation Yrotation Zrotation
										JOINT newVegas:RightHandIndex3
										{
											OFFSET -3.835129 0.000000 0.000000
											CHANNELS 3 Xrotation Yrotation Zrotation
											End Site
											{
												OFFSET 0.034599 3.816971 0.371180
											}
										}
									}
								}
								JOINT newVegas:RightHandMiddle1
								{
									OFFSET -18.476105 0.000000 0.000000
									CHANNELS 3 Xrotation Yrotation Zrotation
									JOINT newVegas:RightHandMiddle2
									{
										OFFSET -3.324875 0.000000 0.000000
										CHANNELS 3 Xrotation Yrotation Zrotation
										JOINT newVegas:RightHandMiddle3
										{
											OFFSET -4.596550 0.000000 0.000000
											CHANNELS 3 Xrotation Yrotation Zrotation
											End Site
											{
												OFFSET -0.057701 4.578827 0.399218
											}
										}
									}
								}
								JOINT newVegas:RightHandRing1
								{
									OFFSET -17.732719 0.121887 -4.201567
									CHANNELS 3 Xrotation Yrotation Zrotation
									JOINT newVegas:RightHandRing2
									{
										OFFSET -2.733170 0.000000 0.000000
										CHANNELS 3 Xrotation Yrotation Zrotation
										JOINT newVegas:RightHandRing3
										{
											OFFSET -3.178268 0.000000 0.000000
											CHANNELS 3 Xrotation Yrotation Zrotation
											End Site
											{
												OFFSET -0.119102 3.170624 0.185394
											}
										}
									}
								}
								JOINT newVegas:RightHandPinky1
								{
									OFFSET -15.989624 -0.606689 -7.535461
									CHANNELS 3 Xrotation Yrotation Zrotation
									JOINT newVegas:RightHandPinky2
									{
										OFFSET -2.538986 0.000000 0.000000
										CHANNELS 3 Xrotation Yrotation Zrotation
										JOINT newVegas:RightHandPinky3
										{
											OFFSET -2.593102 0.000000 0.000000
											CHANNELS 3 Xrotation Yrotation Zrotation
											End Site
											{
												OFFSET 0.150902 2.584198 0.152708
											}
										}
									}
								}
							}
							JOINT newVegas:Right_CapeC
							{
								OFFSET -15.715958 -8.608795 -6.935905
								CHANNELS 3 Xrotation Yrotation Zrotation
								JOINT newVegas:Right_CapeC1
								{
									OFFSET 0.000000 -8.688499 0.000000
									CHANNELS 3 Xrotation Yrotation Zrotation
									End Site
									{
										OFFSET 0.000000 8.688499 0.000000
									}
								}
							}
							JOINT newVegas:Right_Sleeve
							{
								OFFSET -0.267448 -0.649994 0.577675
								CHANNELS 3 Xrotation Yrotation Zrotation
								End Site
								{
									OFFSET 0.000000 15.991302 0.000000
								}
							}
						}
						JOINT newVegas:Right_CapeA
						{
							OFFSET -5.115540 -8.608795 -10.395824
							CHANNELS 3 Xrotation Yrotation Zrotation
							JOINT newVegas:Right_CapeA1
							{
								OFFSET 0.000000 -8.688499 0.000000
								CHANNELS 3 Xrotation Yrotation Zrotation
								End Site
								{
									OFFSET 0.000000 8.688499 0.000000
								}
							}
						}
						JOINT newVegas:Right_CapeB
						{
							OFFSET -26.118187 -8.608795 -7.079266
							CHANNELS 3 Xrotation Yrotation Zrotation
							JOINT newVegas:Right_CapeB1
							{
								OFFSET 0.000000 -8.688499 0.000000
								CHANNELS 3 Xrotation Yrotation Zrotation
								End Site
								{
									OFFSET 0.000000 8.688499 0.000000
								}
							}
						}
					}
				}
				JOINT newVegas:Left_Collar
				{
					OFFSET 18.625099 8.655502 8.828100
					CHANNELS 3 Xrotation Yrotation Zrotation
					JOINT newVegas:Left_Collar1
					{
						OFFSET 14.783401 10.540405 -1.259500
						CHANNELS 3 Xrotation Yrotation Zrotation
						End Site
						{
							OFFSET 0.000000 18.199875 0.000000
						}
					}
				}
				JOINT newVegas:Collar_Back
				{
					OFFSET 0.000000 15.630707 -20.132601
					CHANNELS 3 Xrotation Yrotation Zrotation
					End Site
					{
						OFFSET 0.000000 22.523010 0.000000
					}
				}
				JOINT newVegas:Left_Peck
				{
					OFFSET 17.239599 -5.132599 25.482599
					CHANNELS 3 Xrotation Yrotation Zrotation
					End Site
					{
						OFFSET 0.000000 22.523010 0.000000
					}
				}
				JOINT newVegas:Right_Peck
				{
					OFFSET -17.239599 -5.132202 25.482599
					CHANNELS 3 Xrotation Yrotation Zrotation
					End Site
					{
						OFFSET 0.000000 22.523010 0.000000
					}
				}
				JOINT newVegas:Right_Collar
				{
					OFFSET -18.625099 8.655792 8.828100
					CHANNELS 3 Xrotation Yrotation Zrotation
					JOINT newVegas:Right_Collar1
					{
						OFFSET -14.783401 10.539993 -1.259500
						CHANNELS 3 Xrotation Yrotation Zrotation
						End Site
						{
							OFFSET 0.000000 18.199631 0.000000
						}
					}
				}
			}
		}
		JOINT newVegas:Belly
		{
			OFFSET 0.000000 -6.540398 9.014299
			CHANNELS 3 Xrotation Yrotation Zrotation
			End Site
			{
				OFFSET 0.000000 11.566666 0.000000
			}
		}
	}
	JOINT newVegas:ElvisFacialAnim_Joint
	{
		OFFSET 1.000000 -95.330101 -8.825800
		CHANNELS 3 Xrotation Yrotation Zrotation
		End Site
		{
			OFFSET 0.000000 35.315800 0.000000
		}
	}
}
MOTION
Frames: 4
Frame Time: 0.033333
-3.968487 86.997864 -4.944341 8.926207 -19.066142 2.470293 -0.000001 0.000000 -0.000000 -47.677029 -1.588599 15.489307 34.547971 6.620040 1.609124 7.440999 0.394691 -12.133207 0.000000 0.000000 -0.000000 0.000000 0.000000 -0.000001 -33.397494 -6.727740 -12.913563 51.410509 -3.719894 3.119977 -24.651935 -1.951288 7.199166 -0.000000 -0.000002 0.000000 -0.000002 -0.000005 0.000000 27.442956 3.576879 1.063208 3.666494 1.134014 -0.398702 3.642533 1.226118 -0.404248 0.010395 0.402456 -0.137221 0.010385 0.402459 -0.137224 -0.000000 0.000001 -0.000000 0.010384 0.402454 -0.137218 0.010392 0.402446 -0.137221 -0.000001 0.000001 -0.000000 -0.000000 0.000001 -0.000000 3.410082 -22.606222 -6.137570 -25.360655 -20.187505 -64.959450 -0.000274 -48.652657 -4.374202 -33.374930 -2.993901 -8.539435 -7.471933 1.860679 -7.166914 30.986980 27.310540 -4.510878 0.000000 -0.000005 0.000000 -4.707394 11.366690 -75.214453 -0.816399 3.073993 -46.874615 -0.000000 -0.000001 0.000002 1.623342 16.580928 -84.691286 0.018010 0.022031 -72.884867 0.000000 0.000001 -0.000002 -6.443164 23.132621 -76.210172 0.012873 0.975924 -51.002983 -0.000000 0.000001 -0.000002 -17.098965 22.128959 -43.123185 0.019728 0.026999 -78.662899 0.000002 -0.000002 -0.000001 0.000000 0.000002 -0.000000 0.000000 0.000002 -0.000000 -0.000001 0.000002 0.000000 -0.000001 -0.000001 -0.000001 -0.000001 0.000000 0.000000 -0.000001 -0.000001 -0.000001 -0.000003 0.000000 -0.000001 9.793533 22.969248 -12.055053 -49.244844 10.203700 77.862101 0.000204 47.932475 5.696902 -24.311220 12.686522 8.416238 9.347174 2.810547 -11.364500 16.169016 -43.266011 15.843537 -0.000002 -0.000004 0.000001 17.076791 -0.396554 31.924349 -0.204408 -0.284230 112.811571 0.000000 -0.000001 0.000001 9.205457 -5.035864 102.738087 0.014970 -0.019196 61.018513 0.000001 -0.000000 0.000000 5.569133 -8.935209 107.329108 0.547984 -0.005774 41.263700 -0.000001 -0.000003 -0.000000 6.511245 -17.148281 98.228038 0.007403 -0.015748 43.845740 0.000000 0.000003 0.000000 0.000001 0.000000 -0.000000 -0.000000 0.000000 -0.000002 0.000001 0.000000 -0.000000 0.000001 0.000001 -0.000001 0.000001 0.000001 -0.000001 0.000001 0.000001 -0.000001 0.000001 0.000001 -0.000001 -0.000000 -0.000001 0.000001 -0.000000 -0.000001 0.000001 -0.000000 -0.000001 0.000001 -0.000000 -0.000001 0.000001 -0.000000 -0.000001 0.000001 -0.000000 -0.000001 0.000001 -0.000000 -0.000001 0.000001 -0.000002 -0.000001 -0.000000 -0.000001 0.000000 -0.000000 
-3.473259 87.527679 -3.488935 7.802871 -18.422661 1.967662 -0.000000 -0.000001 0.000000 -46.089437 -1.063993 14.568712 35.229446 6.189955 1.702081 5.830979 0.505596 -11.450632 -0.000000 0.000000 -0.000000 0.000000 0.000000 -0.000001 -29.661661 -7.131763 -13.358473 48.823756 -4.067936 2.698583 -24.515583 -2.359882 8.577504 -0.000000 0.000001 0.000000 0.000002 0.000004 -0.000002 26.577371 3.863548 1.142942 3.662221 1.168128 -0.502095 3.643384 1.254542 -0.508115 -0.379193 0.436307 -0.068261 -0.379241 0.436316 -0.068270 0.000000 0.000001 -0.000001 -0.379231 0.436306 -0.068260 -0.379131 0.436314 -0.068259 0.000002 0.000000 0.000000 0.000000 0.000001 -0.000001 4.162925 -21.876666 -2.976814 -27.312070 -19.029595 -69.081640 -0.000140 -46.902540 -4.686497 -31.932217 -5.143549 -8.850030 -7.471931 1.860678 -7.166906 30.986987 27.310546 -4.510881 0.000003 -0.000002 -0.000003 -4.707389 11.366691 -75.214446 -0.816399 3.073996 -46.874612 0.000001 -0.000003 -0.000001 1.623344 16.580928 -84.691279 0.018012 0.022034 -72.884867 -0.000000 0.000000 -0.000002 -6.443162 23.132620 -76.210165 0.012874 0.975927 -51.002979 -0.000002 -0.000001 -0.000000 -17.098962 22.128957 -43.123185 0.019726 0.026999 -78.662899 0.000001 -0.000007 0.000002 -0.000001 0.000001 0.000001 -0.000001 0.000001 0.000001 -0.000002 0.000001 0.000001 -0.000001 0.000001 0.000000 -0.000001 0.000001 0.000000 -0.000001 0.000001 0.000000 -0.000002 0.000001 -0.000000 10.450746 24.186870 -14.223632 -47.815327 6.559826 78.887394 0.000017 50.077427 5.825761 -22.694456 12.943710 8.430589 9.347169 2.810548 -11.364504 16.169016 -43.266007 15.843541 -0.000001 0.000000 0.000001 17.076789 -0.396553 31.924349 -0.204404 -0.284228 112.811571 0.000000 -0.000002 0.000001 9.205456 -5.035866 102.738094 0.014968 -0.019198 61.018526 -0.000000 0.000002 -0.000001 5.569131 -8.935205 107.329108 0.547989 -0.005777 41.263703 0.000001 -0.000004 -0.000000 6.511244 -17.148276 98.228038 0.007401 -0.015743 43.845747 -0.000000 -0.000000 0.000000 0.000001 0.000002 0.000002 0.000000 0.000000 -0.000001 0.000001 0.000002 0.000003 0.000002 0.000000 0.000000 0.000002 0.000000 0.000000 0.000002 0.000000 0.000000 0.000002 -0.000000 0.000000 -0.000004 -0.000000 -0.000000 -0.000004 -0.000000 -0.000000 -0.000004 -0.000000 -0.000000 -0.000004 -0.000000 -0.000000 -0.000004 -0.000000 -0.000000 -0.000004 -0.000000 -0.000000 -0.000004 -0.000000 -0.000000 -0.000003 -0.000000 -0.000000 -0.000000 -0.000001 0.000000 
-2.970676 88.072578 -2.088380 6.657034 -17.986603 1.425883 -0.000000 0.000001 -0.000000 -44.356591 -0.480292 13.869277 35.825872 5.810197 1.747584 4.243144 0.596563 -10.757492 0.000000 0.000000 0.000000 -0.000000 0.000000 -0.000001 -25.864910 -7.664769 -13.700761 45.833346 -4.210181 2.334933 -24.042162 -2.688458 9.757825 0.000000 -0.000002 -0.000000 0.000000 -0.000001 -0.000001 26.062747 4.137785 1.082568 3.629548 1.218636 -0.592165 3.616300 1.302595 -0.604112 -0.961796 0.430730 0.073578 -0.961813 0.430731 0.073576 0.000002 0.000000 0.000001 -0.961809 0.430732 0.073575 -0.961794 0.430747 0.073572 -0.000001 0.000000 0.000001 0.000002 0.000000 -0.000000 5.131386 -21.400289 0.242501 -29.527475 -16.441650 -73.184432 -0.000029 -45.476349 -4.898257 -29.206975 -6.964127 -9.642986 -7.471929 1.860679 -7.166909 30.986984 27.310540 -4.510876 0.000003 -0.000002 -0.000003 -4.707389 11.366686 -75.214453 -0.816398 3.073996 -46.874612 -0.000000 -0.000002 0.000002 1.623344 16.580928 -84.691279 0.018010 0.022031 -72.884874 0.000000 0.000002 0.000001 -6.443160 23.132623 -76.210172 0.012875 0.975925 -51.002983 -0.000002 -0.000002 0.000000 -17.098962 22.128957 -43.123188 0.019725 0.026998 -78.662899 -0.000000 0.000002 0.000001 -0.000000 0.000003 -0.000000 -0.000000 0.000003 -0.000000 -0.000001 0.000004 0.000000 -0.000004 0.000001 -0.000000 -0.000004 0.000001 0.000000 -0.000004 0.000001 -0.000000 -0.000005 0.000002 -0.000000 11.184713 25.136382 -16.388452 -46.579004 3.403215 80.167201 -0.000090 52.228701 5.823269 -21.301372 13.589272 8.266161 9.347173 2.810551 -11.364506 16.169023 -43.266014 15.843541 0.000001 -0.000002 -0.000001 17.076791 -0.396550 31.924349 -0.204405 -0.284227 112.811571 0.000000 -0.000001 -0.000001 9.205457 -5.035862 102.738094 0.014964 -0.019196 61.018526 0.000002 -0.000000 -0.000000 5.569130 -8.935205 107.329101 0.547986 -0.005780 41.263703 0.000001 0.000001 0.000000 6.511245 -17.148271 98.228031 0.007401 -0.015746 43.845747 0.000001 0.000005 -0.000000 0.000002 0.000001 -0.000001 0.000000 0.000000 -0.000001 0.000002 0.000000 0.000000 0.000000 0.000000 0.000000 0.000000 0.000000 0.000000 0.000000 0.000000 0.000000 0.000000 -0.000000 0.000000 0.000001 -0.000000 -0.000000 0.000001 -0.000000 -0.000000 0.000001 -0.000000 -0.000000 0.000001 -0.000000 -0.000000 0.000001 -0.000000 -0.000000 0.000001 -0.000000 -0.000000 0.000001 -0.000000 -0.000000 0.000003 -0.000000 0.000001 -0.000000 0.000001 -0.000000 
-2.476577 88.581360 -0.764616 5.841125 -17.519939 0.978322 0.000000 0.000002 -0.000000 -42.869293 0.062493 13.234766 36.163178 5.433850 1.744151 2.874541 0.650000 -10.034078 0.000000 0.000000 -0.000000 -0.000000 -0.000000 0.000002 -22.354224 -8.277701 -13.991206 42.596475 -4.379762 2.092560 -23.346676 -2.932446 10.808206 0.000000 -0.000001 -0.000000 0.000002 -0.000003 -0.000000 25.466543 4.293290 0.906514 3.598104 1.251495 -0.680692 3.588755 1.334254 -0.699454 -1.416413 0.416165 0.195599 -1.416438 0.416166 0.195592 -0.000003 0.000000 0.000000 -1.416347 0.416153 0.195598 -1.416425 0.416175 0.195591 -0.000001 -0.000001 0.000000 -0.000003 0.000000 0.000001 5.981521 -21.090461 3.217323 -31.207250 -12.930312 -76.862161 0.000012 -44.628504 -5.030650 -25.773596 -8.279200 -10.663350 -7.471931 1.860681 -7.166915 30.986984 27.310542 -4.510874 -0.000000 -0.000003 -0.000003 -4.707390 11.366693 -75.214460 -0.816401 3.073994 -46.874612 0.000001 0.000000 0.000001 1.623342 16.580931 -84.691286 0.018014 0.022030 -72.884867 -0.000000 -0.000000 0.000000 -6.443159 23.132621 -76.210172 0.012873 0.975926 -51.002979 -0.000001 0.000001 0.000003 -17.098964 22.128959 -43.123192 0.019728 0.027001 -78.662899 -0.000000 0.000002 -0.000000 0.000001 0.000001 -0.000001 0.000001 0.000001 -0.000001 0.000000 0.000001 -0.000001 0.000002 0.000000 -0.000000 0.000002 0.000000 0.000000 0.000002 0.000000 -0.000000 -0.000000 0.000000 -0.000000 11.951105 25.845690 -18.481923 -45.528754 0.722223 81.626901 -0.000042 54.198203 5.729528 -20.183566 14.452352 7.998920 9.347170 2.810548 -11.364503 16.169023 -43.266014 15.843537 0.000002 -0.000002 -0.000001 17.076789 -0.396552 31.924345 -0.204406 -0.284229 112.811571 -0.000000 -0.000002 0.000000 9.205457 -5.035863 102.738094 0.014971 -0.019198 61.018519 -0.000000 -0.000000 -0.000000 5.569132 -8.935207 107.329101 0.547983 -0.005778 41.263707 0.000000 -0.000003 -0.000000 6.511242 -17.148274 98.228038 0.007399 -0.015743 43.845747 -0.000001 0.000005 -0.000001 0.000001 0.000004 0.000002 0.000000 0.000000 -0.000002 0.000001 0.000004 0.000002 0.000000 0.000000 -0.000001 0.000000 0.000000 -0.000001 0.000000 0.000000 -0.000001 0.000000 -0.000000 -0.000001 -0.000000 0.000000 -0.000000 -0.000000 0.000000 -0.000000 -0.000000 0.000000 -0.000000 -0.000000 0.000000 -0.000000 -0.000000 0.000000 -0.000000 -0.000000 0.000000 -0.000000 -0.000000 0.000000 -0.000000 -0.000001 -0.000000 -0.000000 0.000000 0.000002 -0.000000 
